<?xml version="1.0" standalone="no"?>
<!DOCTYPE svg PUBLIC "-//W3C//DTD SVG 1.1//EN" "http://www.w3.org/Graphics/SVG/1.1/DTD/svg11.dtd" >
<svg xmlns="http://www.w3.org/2000/svg">
<metadata>
This is a custom SVG webfont generated by Font Squirrel.
Copyright   : Copyright c 2013 by Alessio Laiso alessiolaisogmailcom Licensed under the SIL Open Font License Version 11
Designer    : Alessio Laiso
</metadata>
<defs>
<font id="AleoItalic" horiz-adv-x="737" >
<font-face units-per-em="2048" ascent="1649" descent="-399" />
<missing-glyph horiz-adv-x="425" />
<glyph unicode=" "  horiz-adv-x="425" />
<glyph unicode="&#x09;" horiz-adv-x="425" />
<glyph unicode="&#xa0;" horiz-adv-x="425" />
<glyph unicode="!" horiz-adv-x="460" d="M25 113q3 27 15.5 50t31.5 40.5t44 28t51.5 10.5t49 -10.5t37.5 -28t22 -41t4 -49.5q-3 -28 -16 -51t-32.5 -40.5t-44 -27t-51.5 -9.5t-49 9.5t-37 27t-21.5 40.5t-3.5 51zM142 512q0 53 1.5 99.5t4 91.5t6 89t9.5 90l72 585h173l-72 -585q-6 -46 -12.5 -90t-15 -89 t-19 -91.5t-23.5 -99.5h-124z" />
<glyph unicode="&#x22;" horiz-adv-x="717" d="M122 1012l3 158l36 297h159l-36 -297l-36 -158q-7 -33 -23.5 -51t-48.5 -18q-27 0 -39.5 18t-14.5 51zM463 1012l3 158l36 297h159l-36 -297l-36 -158q-7 -33 -23.5 -51t-48.5 -18q-27 0 -39.5 18t-14.5 51z" />
<glyph unicode="#" horiz-adv-x="1164" d="M17 485q1 5 2 11.5t3 12.5l15 58h209l108 334h-238l23 76q9 30 29 44t60 14h162l119 367q10 31 34 48t55 17h81l-139 -432h253l139 432h81q26 0 41 -15t12 -40q-1 -8 -3 -13l-119 -364h217l-23 -77q-9 -30 -29.5 -43.5t-59.5 -13.5h-141l-108 -334h184q25 0 36.5 -11.5 t7.5 -41.5q-1 -5 -2 -10.5t-2 -11.5l-17 -59h-243l-139 -433h-83q-24 0 -38 17.5t-10 44.5q1 4 1.5 8t2.5 9l116 354h-253l-117 -363q-13 -38 -38 -54t-55 -16h-81l140 433h-149q-24 0 -35.5 12t-8.5 40zM397 567h253l107 334h-253z" />
<glyph unicode="$" horiz-adv-x="1056" d="M-34 175l65 84q9 11 23 18.5t28 7.5q19 0 41.5 -19.5t55 -44.5t79.5 -49t116 -32l104 544q-69 22 -134.5 49t-115 70.5t-75 109.5t-12.5 165q9 75 47 146t100.5 126.5t148.5 91t193 39.5l29 147q4 19 19.5 34.5t37.5 15.5h68l-40 -202q106 -13 179 -55.5t127 -101.5 l-53 -68q-24 -31 -50 -30q-14 0 -34 12.5t-47.5 29.5t-64.5 34t-86 24l-94 -496q71 -23 139 -49t120.5 -68t80 -105t15.5 -158q-11 -92 -51.5 -173t-107 -142t-157 -99.5t-200.5 -44.5l-34 -181q-4 -19 -20 -34t-38 -15h-67l44 232q-123 11 -218.5 60.5t-160.5 126.5z M315 1097q-6 -49 7 -85.5t40 -64t65.5 -48t84.5 -37.5l88 462q-67 -6 -118.5 -26.5t-86.5 -51.5t-55 -69t-25 -80zM489 140q67 6 122 29.5t94.5 59t63.5 83.5t31 105q6 51 -8.5 88t-44 63.5t-71 46t-89.5 35.5z" />
<glyph unicode="%" horiz-adv-x="1529" d="M44 0l1243 1431q15 17 31 26.5t41 9.5h131l-1249 -1437q-12 -13 -27 -21.5t-35 -8.5h-135zM84 1113q11 88 44 156.5t83 116t112 72t131 24.5t126 -24.5t94.5 -72t54.5 -116t6 -156.5q-11 -86 -46 -154t-85 -114.5t-112.5 -71t-127.5 -24.5q-70 0 -125.5 24.5t-94 71 t-54.5 114.5t-6 154zM228 999.5q8 -46.5 29 -75.5t52.5 -42t69.5 -13t73 13t63.5 42t48.5 75.5t28 113.5q8 68 0 115t-29.5 77t-53.5 43.5t-69.5 13.5t-72.5 -13.5t-63.5 -43.5t-48 -77t-27.5 -115q-8 -67 0 -113.5zM802 346q11 88 44 157t83 116.5t112 72t131 24.5 t125.5 -24.5t94.5 -72t54.5 -116.5t5.5 -157q-11 -86 -46 -153.5t-85 -114t-112 -71t-127 -24.5q-70 0 -125.5 24.5t-94 71t-54.5 114t-6 153.5zM946 233q8 -46 29 -75t52.5 -42t69.5 -13t73 13t63.5 42t48.5 75t28 113q8 68 0 115.5t-29.5 77t-53.5 43t-69.5 13.5 t-72.5 -13.5t-63.5 -43t-48 -77t-27.5 -115.5q-8 -67 0 -113z" />
<glyph unicode="&#x26;" horiz-adv-x="1344" d="M20 391q9 72 40.5 136t81 118t113 97t136.5 74q-53 79 -73 153.5t-11 154.5q9 75 44.5 140.5t92.5 114t134 77t168 28.5q81 0 144 -26t106.5 -69t64.5 -100t18 -119l-116 -22q-5 -1 -10 -1q-13 0 -24 7t-14 26q-4 27 -16 55.5t-34.5 52t-56 38.5t-80.5 15q-51 0 -94 -16 t-75.5 -45.5t-53.5 -69t-26 -85.5q-4 -36 0.5 -68.5t17.5 -66t36.5 -68.5t57.5 -74l369 -429q47 69 79.5 144t50.5 151q4 19 15.5 30.5t30.5 11.5h112q-17 -118 -66.5 -231.5t-129.5 -213.5l269 -311h-176q-30 0 -47.5 7t-36.5 30l-130 148q-108 -93 -239.5 -147t-282.5 -54 q-82 0 -157.5 27.5t-131 80t-84 128.5t-16.5 171zM207 405q-8 -67 10 -117t54 -85t85 -53t102 -18q115 0 211 42t174 112l-379 437q-116 -58 -180.5 -140t-76.5 -178z" />
<glyph unicode="'" horiz-adv-x="376" d="M122 1012l3 158l36 297h159l-36 -297l-36 -158q-7 -33 -23.5 -51t-48.5 -18q-27 0 -39.5 18t-14.5 51z" />
<glyph unicode="(" horiz-adv-x="531" d="M46 401q-1 118 15 243q15 124 45 243t77.5 235t115.5 231.5t159 234.5l75 -50q10 -7 16 -16.5t5 -23.5q-2 -15 -15 -35q-130 -186 -211.5 -393t-108.5 -426t4 -425.5t115 -393.5q5 -11 6 -19.5t0 -16.5q-2 -14 -10.5 -23.5t-20.5 -16.5l-87 -49q-62 118 -101.5 233.5 t-58.5 232.5t-20 235z" />
<glyph unicode=")" horiz-adv-x="534" d="M-42 -211q1 8 4.5 16.5t10.5 19.5q130 187 211.5 393.5t108.5 425.5t-3.5 426t-115.5 393q-8 19 -6 35q2 14 10.5 23.5t20.5 16.5l87 50q62 -119 101.5 -234.5t58.5 -231.5t20 -235t-15 -243q-15 -125 -45 -243t-77.5 -235t-115.5 -232.5t-159 -233.5l-75 49 q-10 7 -16 16.5t-5 23.5z" />
<glyph unicode="*" horiz-adv-x="760" d="M75 1085l188 103q40 22 78 24q-20 2 -37 8t-34 18l-165 103l55 77l164 -102q33 -20 52 -53q-7 18 -8 37t1 39l25 203h90l-25 -202q-5 -42 -23 -73q13 15 28.5 26.5t33.5 22.5l189 101l36 -77l-189 -102q-19 -11 -36.5 -17.5t-36.5 -8.5q18 -2 34.5 -7.5t32.5 -16.5 l164 -104l-54 -76l-165 102q-17 11 -30 22.5t-22 27.5q12 -34 7 -74l-25 -202h-90l25 201q2 19 7 37t14 34q-24 -26 -60 -46l-189 -101z" />
<glyph unicode="+" horiz-adv-x="1038" d="M24 618l17 139h414l54 437h149l-53 -437h417l-17 -139h-417l-54 -440h-150l54 440h-414z" />
<glyph unicode="," horiz-adv-x="470" d="M72 -219q2 13 18 28q12 11 30 30t37.5 43.5t36.5 54t28 63.5h-14q-27 0 -47 9t-34 26t-19.5 40t-2.5 51q3 24 14.5 44.5t29 36.5t41.5 25.5t50 9.5q31 0 53.5 -11.5t36 -31.5t18.5 -46t1 -57q-6 -46 -25 -95.5t-49.5 -98t-72.5 -95t-93 -85.5l-27 30q-12 12 -10 29z" />
<glyph unicode="-" d="M108 537l19 154h505l-19 -154h-505z" />
<glyph unicode="." horiz-adv-x="457" d="M83 113q3 27 16 50t32 40.5t43.5 28t51 10.5t49 -10.5t38 -28t22 -41t3.5 -49.5q-3 -28 -15.5 -51t-32.5 -40.5t-44.5 -27t-51 -9.5t-49 9.5t-37.5 27t-21.5 40.5t-3.5 51z" />
<glyph unicode="/" horiz-adv-x="946" d="M-25 -92l804 1533q17 33 44 50t61 17h76l-799 -1530q-19 -36 -49 -53t-60 -17h-77z" />
<glyph unicode="0" horiz-adv-x="1223" d="M75.5 400q-23.5 141 0 333.5t82 333.5t141.5 234t185 138t215 45q112 0 204 -45t152.5 -138t84.5 -234t0.5 -333.5t-82.5 -333.5t-142 -233t-186.5 -137t-214.5 -45q-113 0 -204 45t-151.5 137t-84 233zM257.5 451.5q14.5 -113.5 53 -183t97 -100t126 -30.5t134 30.5 t122.5 100t98 183t62.5 281.5t6.5 282t-53 184t-97.5 100t-126.5 30t-134 -30t-121.5 -100t-98 -184t-63 -282t-6 -281.5z" />
<glyph unicode="1" horiz-adv-x="859" d="M2 0l7 60l3 22q4 30 33 36l290 21l122 1001q6 45 15 91l-290 -224q-21 -15 -39 -16q-34 0 -46 23l-48 79l483 377h148l-163 -1331q240 -18 257 -21q28 -6 25 -36l-11 -82h-786z" />
<glyph unicode="2" horiz-adv-x="1119" d="M-15 0l7 62q6 45 43 78l528 472q48 44 67 61.5t60 58.5t62.5 68.5t48.5 68t45 80.5q15 33 24 70.5t11.5 82t-9.5 81.5q-7 23 -18 43t-26 36t-34.5 28t-42 20.5t-49 12.5t-56.5 4q-165 0 -263 -131q-30 -40 -46 -88q-11 -28 -28 -42t-47 -14q-9 0 -23 2l-93 16 q26 96 73 172t117.5 131t160.5 84q85 27 179 27q146 0 243.5 -62t133.5 -175q12 -38 15 -82.5t-2.5 -87t-16.5 -82t-26 -71.5q-26 -54 -59.5 -103t-81 -99t-79.5 -80.5t-91 -83.5q-10 -9 -15 -14l-435 -396q92 25 167 25h402q22 108 25 118q5 15 18.5 25t28.5 10h99 q-3 -27 -7.5 -63.5t-9 -72.5t-8.5 -64l-15 -126h-977z" />
<glyph unicode="3" horiz-adv-x="1098" d="M-9 367l82 32q23 9 44 10q20 0 35 -9t21 -27q2 -4 3 -9t3 -10q11 -30 26.5 -67t46.5 -70t80 -55.5t125.5 -22.5t137.5 25t104.5 65t69 89.5t31.5 97.5q7 59 -3 108t-47 85t-107.5 56.5t-185.5 20.5l16 132q93 1 161.5 20.5t115 53.5t71 81t31.5 104q8 63 -6 110.5t-45 78 t-77 46t-101.5 15.5t-104.5 -16.5t-89 -45.5t-69.5 -69.5t-47.5 -87.5q-12 -30 -30 -43t-43 -13q-5 0 -11 0.5t-13 1.5l-93 16q27 100 77.5 177.5t120 130t154 79.5t178.5 27q93 0 169 -26.5t126.5 -76t74 -119t12.5 -154.5q-9 -70 -33.5 -124.5t-62.5 -96t-89 -70.5 t-111 -46q139 -38 200 -127t45 -223q-12 -101 -61 -182t-122.5 -138t-165.5 -87t-194 -30q-117 0 -196 29t-130 80t-79.5 121.5t-43.5 152.5z" />
<glyph unicode="4" horiz-adv-x="1133" d="M6 520l830 947h170l-115 -938h222l-13 -104q-2 -16 -13 -27.5t-31 -11.5h-183l-47 -386h-161l48 386h-651q-20 0 -33.5 12t-15.5 29zM205 529h525l75 606q3 27 8 57.5t15 62.5z" />
<glyph unicode="5" horiz-adv-x="1070" d="M-16 138l64 78q22 27 53 27q19 0 43.5 -16t59 -35.5t82 -35.5t116.5 -16q77 0 141 24.5t113.5 70.5t80.5 109.5t41 141.5q8 69 -5 124.5t-48.5 94t-93.5 60t-139 21.5q-55 0 -115.5 -9t-126.5 -29l-111 33l203 686h696l-10 -79q-5 -39 -32.5 -64.5t-86.5 -25.5h-460 l-115 -385q118 25 215 25q115 0 198 -34t135 -93t72.5 -140t8.5 -176q-14 -117 -66.5 -211.5t-132 -161.5t-180 -102.5t-212.5 -35.5q-65 0 -122.5 12.5t-106 34t-89 49.5t-70.5 58z" />
<glyph unicode="6" horiz-adv-x="1072" d="M35 484q12 96 68.5 205t164.5 234l433 500q17 18 44 31t60 13h162l-588 -644q57 36 122.5 56t139.5 20q88 0 163.5 -29t128 -85t77 -137.5t11.5 -185.5q-12 -101 -59.5 -188.5t-121.5 -152t-171.5 -101t-209.5 -36.5q-111 0 -196 35t-140.5 100t-78.5 158t-9 207z M207 453q-9 -71 4.5 -129.5t48 -100.5t88.5 -65t126 -23q74 0 136.5 23.5t110 65.5t77.5 99.5t39 125.5q9 72 -7 129.5t-51.5 98t-90.5 62t-124 21.5q-74 0 -136 -25t-109 -67.5t-76 -98.5t-36 -116z" />
<glyph unicode="7" horiz-adv-x="1107" d="M66 0l765 1210q35 54 69 88h-656q-28 -140 -33 -153q-11 -35 -46 -35h-99l44 357h997l-10 -82q-6 -51 -35 -95l-758 -1225q-41 -65 -108 -65h-130z" />
<glyph unicode="8" horiz-adv-x="1127" d="M31 401q17 141 102.5 233t227.5 131q-110 43 -159 128.5t-34 204.5q10 81 50.5 151.5t105 122.5t149.5 82t186 30q99 0 177.5 -30t130.5 -82t75 -122.5t13 -151.5q-15 -119 -85 -204.5t-190 -128.5q132 -39 195 -130.5t45 -233.5q-12 -96 -57.5 -173t-117 -131.5 t-166.5 -83.5t-204.5 -29t-197 29t-146.5 83.5t-85.5 131.5t-14.5 173zM220 404q-8 -61 7 -111.5t50 -87t89.5 -56.5t126 -20t131 20t103 56.5t71 87t34.5 111.5q9 76 -9 130t-56.5 87.5t-92 49.5t-113.5 16t-117.5 -16t-104 -49.5t-78.5 -87.5t-41 -130zM346 1095 q-6 -50 2.5 -97.5t35.5 -83.5t75 -58t120 -22t125 22t89.5 58t56.5 83t26 98t-5 96t-40 79t-76.5 53t-113 19t-117.5 -19t-89.5 -53t-60 -79t-28.5 -96z" />
<glyph unicode="9" horiz-adv-x="1065" d="M72 1023q12 96 58 180t118 146.5t165.5 98.5t200.5 36q105 0 187 -35t135.5 -97.5t76.5 -149.5t10 -192q-8 -63 -27 -120t-48 -111.5t-67 -108.5t-85 -111l-421 -516q-16 -19 -41.5 -31t-57.5 -12h-168l518 585q26 30 49 56.5t44 52.5q-62 -45 -135.5 -68.5t-152.5 -23.5 q-83 0 -154 27.5t-120.5 81.5t-73.5 132.5t-11 179.5zM256 1036q-9 -70 4.5 -124.5t46 -92.5t84 -57.5t117.5 -19.5q74 0 134 24.5t103.5 64t70.5 92t34 108.5q8 69 -7 124.5t-49 94.5t-85 60t-116 21q-68 0 -126.5 -22t-102.5 -61t-72 -93t-36 -119z" />
<glyph unicode=":" horiz-adv-x="489" d="M62 113q3 27 15.5 50t31.5 40.5t44 28t51.5 10.5t49 -10.5t37.5 -28t22 -41t4 -49.5q-3 -28 -16 -51t-32.5 -40.5t-44.5 -27t-51.5 -9.5t-49 9.5t-37 27t-21 40.5t-3.5 51zM156 881q3 27 15.5 50t31.5 40.5t44 28t51.5 10.5t49 -10.5t37.5 -28t22 -41t4 -49.5 q-3 -28 -16 -51t-32.5 -40.5t-44 -27t-51.5 -9.5t-49 9.5t-37 27t-21.5 40.5t-3.5 51z" />
<glyph unicode=";" horiz-adv-x="495" d="M46 -219q2 13 18 28q12 11 30 30t37.5 43.5t37 54t27.5 63.5h-13q-27 0 -47.5 9t-34 26t-19 40t-2.5 51q3 24 14 44.5t29 36.5t41.5 25.5t50.5 9.5q31 0 53.5 -11.5t35.5 -31.5t18 -46t2 -57q-6 -46 -25.5 -95.5t-50 -98t-72.5 -95t-93 -85.5l-27 30q-12 12 -10 29z M166 881q3 27 16 50t32 40.5t43.5 28t51 10.5t49 -10.5t38 -28t22 -41t3.5 -49.5q-3 -28 -15.5 -51t-32.5 -40.5t-44.5 -27t-51 -9.5t-49 9.5t-37.5 27t-21.5 40.5t-3.5 51z" />
<glyph unicode="&#x3c;" horiz-adv-x="939" d="M44 651l9 76l843 411l-16 -130q-2 -17 -11.5 -30t-31.5 -24l-488 -233q-22 -11 -46 -19t-51 -14q25 -5 47 -13t42 -19l431 -232q19 -10 25.5 -23.5t4.5 -29.5l-16 -131z" />
<glyph unicode="=" horiz-adv-x="1135" d="M100 450l17 138h880l-17 -138h-880zM142 793l17 138h880l-17 -138h-880z" />
<glyph unicode="&#x3e;" horiz-adv-x="931" d="M44 240l16 131q2 16 12 29.5t32 23.5l488 232q22 10 45 18.5t49 13.5q-25 6 -46 14t-40 19l-431 233q-19 10 -26 23t-5 31l16 130l741 -411l-9 -76z" />
<glyph unicode="?" horiz-adv-x="795" d="M50 1336q35 30 77 56.5t90 47t102 32.5t116 12q81 0 147 -23.5t111 -66.5t66 -104.5t12 -138.5q-10 -78 -40 -134t-70.5 -98.5t-86 -74t-85.5 -59t-69.5 -55.5t-37.5 -61l-38 -157h-125l9 170l1 11q5 43 32.5 76.5t66.5 62.5t83 58.5t83.5 64.5t68 80t36.5 107 q5 44 -8 79.5t-39.5 61t-65.5 38.5t-85 13q-62 0 -108.5 -15t-79.5 -33.5t-54 -34t-33 -15.5q-26 0 -37 24zM101 113q3 27 15.5 50t31.5 40.5t44 28t51.5 10.5t49 -10.5t37.5 -28t22 -41t4 -49.5q-3 -28 -16 -51t-32.5 -40.5t-44 -27t-51.5 -9.5t-49 9.5t-37 27t-21.5 40.5 t-3.5 51z" />
<glyph unicode="@" horiz-adv-x="1637" d="M49 582q14 112 55 215t103 192.5t143 164t175.5 127t199.5 82t215 29.5q94 0 182 -20.5t163.5 -60.5t135.5 -99t99.5 -135.5t55 -170t2.5 -203.5q-14 -111 -56.5 -204t-106 -162t-142.5 -108t-165 -39q-80 0 -125.5 38.5t-48.5 118.5q-70 -83 -144 -118.5t-154 -35.5 q-61 0 -103.5 20.5t-68 58t-34 89t-1.5 110.5q11 87 55 175.5t118 160t177.5 116.5t231.5 45q69 0 119 -11t94 -31l-141 -370q-29 -77 -35 -127q-5 -37 1.5 -61t21 -38t34.5 -19t44 -5q50 0 98.5 29t89.5 81t70 125t40 162q17 141 -15.5 248t-103 178t-174.5 106.5 t-229 35.5q-137 0 -263 -52.5t-226.5 -144.5t-167 -218t-85.5 -274q-21 -174 17.5 -306t122.5 -221t206 -134t268 -45q156 0 279.5 34t216.5 86q16 9 29 9q22 0 29 -24l17 -68q-119 -74 -264 -116t-322 -42t-322.5 56.5t-244.5 162.5t-144.5 259.5t-21.5 348.5zM573 476 q-9 -74 19 -118.5t95 -44.5q32 0 65.5 10.5t66.5 36t63.5 69.5t56.5 111l115 302q-39 9 -86 9q-77 0 -145 -32.5t-120.5 -84.5t-86.5 -119.5t-43 -138.5z" />
<glyph unicode="A" horiz-adv-x="1566" d="M-28 0l10 81q3 28 31 34l85 24l695 1328h201l368 -1328l79 -24q23 -5 23 -27q0 -3 -1 -7l-10 -81h-421l10 81q3 28 32 35l87 23l-78 296h-633l-151 -296l81 -23q27 -7 23 -35l-10 -81h-421zM523 579h522l-148 563q-16 55 -27 138q-36 -90 -60 -139z" />
<glyph unicode="B" horiz-adv-x="1282" d="M-18 0l10 88q4 32 36 38l119 24l144 1168q-96 19 -114 23q-30 6 -26 38l11 88h615q392 0 460 -222q15 -51 15 -102q0 -21 -2 -41q-8 -72 -32 -122t-63 -93q-84 -90 -224 -132q287 -59 287 -288q0 -24 -3 -49q-23 -189 -172 -302q-152 -116 -395 -116h-666zM347 158h317 q245 0 324 158q24 48 32 107q2 18 2 36q0 89 -60 144q-72 66 -236 66h-316zM427 810h262q245 0 326 148q25 47 32 103q3 24 3 45q0 94 -58 144q-70 60 -234 61h-269z" />
<glyph unicode="C" horiz-adv-x="1271" d="M38 733q41 333 271 542t568 209q174 0 441 -106l-14 -114l-28 -228h-99q-35 0 -38 35q-1 4 -1 16q0 23 3 77q4 81 5 92q-164 54 -303 54q-235 0 -401 -154q-169 -158 -201 -423q-7 -55 -7 -105q0 -194 102 -321q120 -152 339 -152h3q128 0 197 24q105 37 195 109 q19 15 35.5 15t27.5 -13l68 -85q-218 -221 -556 -221q-315 0 -482 209q-133 166 -133 413q0 61 8 127z" />
<glyph unicode="D" horiz-adv-x="1511" d="M-17 0l10 88q4 32 36 38l119 24l144 1168q-96 19 -114 23q-30 6 -26 38l11 88h677q325 0 498 -201q141 -166 141 -414q0 -57 -7 -119q-20 -165 -88.5 -300t-176.5 -231q-224 -202 -548 -202h-676zM349 161h330q239 0 397 151q160 153 193 421q7 56 7 107q0 72 -14 134 q-24 106 -83 181q-120 152 -359 152h-330z" />
<glyph unicode="E" horiz-adv-x="1176" d="M-17 0l10 88q4 32 36 38l119 24l144 1168q-96 19 -114 23q-30 6 -26 38l11 88h1051l-43 -354h-98q-36 0 -39 36v5q0 25 5 152h-549l-60 -488h541l-19 -155h-541l-61 -501h549q28 136 32 145q11 35 47 35h98l-42 -342h-1051z" />
<glyph unicode="F" horiz-adv-x="1195" d="M-17 0l10 88q4 32 36 38l119 24l144 1168q-96 19 -114 23q-30 6 -26 38l11 88h147h939l-43 -354h-100q-35 0 -37 36v5q0 25 5 152h-584l-63 -513h557l-20 -162h-557l-59 -481q25 -5 114 -24q30 -6 26 -38l-11 -88h-494z" />
<glyph unicode="G" horiz-adv-x="1388" d="M37 733q41 338 270 543q231 208 573 208q239 0 505 -106l-42 -342h-98q-36 0 -39 35q0 15 8 185q-46 15 -75 24q-112 32 -261 32t-254.5 -40.5t-185.5 -115.5q-166 -157 -198 -423q-7 -56 -7 -108q0 -199 104 -325q128 -156 368 -156q201 0 374 86l40 324h-227 q-19 0 -29.5 11.5t-8.5 27.5l13 113h451l-69 -564q-239 -158 -574 -158h-4q-319 0 -496 207q-145 171 -145 424q0 57 7 118z" />
<glyph unicode="H" horiz-adv-x="1594" d="M-18 0l10 88q4 32 36 38l119 24l144 1168q-96 19 -120 24.5t-20 36.5l11 87h494l-10 -87q-4 -32 -27 -36.5t-128 -24.5l-62 -505h790l62 505q-96 19 -120 24.5t-20 36.5l11 87h496l-11 -87q-5 -32 -37 -38l-119 -23l-144 -1168q97 -19 121 -24.5t20 -37.5l-11 -88h-495 l11 88q4 32 35 38l120 24l63 518h-790l-64 -518q144 -30 140 -62l-11 -88h-494z" />
<glyph unicode="I" horiz-adv-x="603" d="M-18 0l10 88q4 32 36 38l119 24l144 1168q-96 19 -120 24.5t-20 36.5l11 87h494l-10 -87q-5 -32 -37 -38l-120 -23l-143 -1168q97 -19 121 -24.5t20 -37.5l-11 -88h-494z" />
<glyph unicode="J" horiz-adv-x="912" d="M-25 12q25 130 39.5 143t34.5 13t50 -9t81 -9q284 0 327 353l100 815q-115 19 -134 23q-30 6 -26 38l11 88h512l-11 -88q-4 -32 -35 -38l-120 -23l-99 -811q-46 -378 -324 -488q-89 -36 -193 -36q-2 0 -3 1q-106 0 -210 28z" />
<glyph unicode="K" horiz-adv-x="1397" d="M-18 0l10 88q4 32 36 38l119 24l144 1168q-96 19 -114 23q-30 6 -26 38l11 88h493l-11 -88q-4 -32 -36 -38q-96 -19 -120 -23l-60 -494h75q69 0 110 43l468 465q-71 14 -87 18q-28 6 -24 35l10 82h462l-7 -77q-4 -32 -35 -38q-18 -4 -98 -24l-497 -492q-51 -50 -89 -67 q43 -14 86 -74l396 -553q84 -17 101 -21q30 -6 26 -38l-10 -83h-481l10 82q4 30 33 36q12 2 96 18l-365 489q-31 39 -57.5 43t-51.5 4h-90l-64 -522q33 -7 114 -24q31 -6 27 -38l-11 -88h-493z" />
<glyph unicode="L" horiz-adv-x="1118" d="M-19 0q9 70 10 88q2 14 12 25t24 13l120 23l143 1169q-96 20 -114 23q-13 3 -20.5 13.5t-5.5 24.5l11 88h147h199h148q-9 -70 -11 -88q-2 -14 -12 -24.5t-24 -13.5q-87 -17 -119 -23l-142 -1151h530q22 107 25 117q5 15 18.5 25t28.5 10h99l-39 -319h-47h-19h-815h-147z " />
<glyph unicode="M" horiz-adv-x="1931" d="M-18 0l10 88q4 32 36 38l119 24l144 1168q-96 19 -114 23q-30 6 -26 38l11 88h294q27 0 40.5 -5t23.5 -28l396 -904q15 -31 33 -106q29 59 60 107l608 903q16 24 31 28.5t42 4.5h294l-10 -88q-4 -32 -37 -38q-119 -24 -119 -23l-144 -1168q97 -19 114 -24q31 -6 27 -38 l-11 -88h-489l11 88q4 32 34 38t140 24l114 928q6 45 16 97l-615 -918q-31 -46 -78 -46h-28q-46 0 -66 46l-401 921q0 -53 -7 -100l-114 -928q108 -18 136 -24t24 -38l-11 -88h-488z" />
<glyph unicode="N" horiz-adv-x="1591" d="M-17 0l10 88q4 32 36 38l119 24l144 1168q-96 19 -114 23q-30 6 -26 38l11 88h250q27 0 38.5 -6.5t25.5 -26.5l714 -1106q0 44 7 100l110 890q-117 20 -134 23q-30 6 -26 38l11 88h167h174h149l-11 -88q-4 -32 -37 -38l-119 -23l-162 -1318h-100q-42 0 -67 36l-713 1105 q-2 -52 -8 -95l-110 -896q118 -20 134 -24q30 -6 26 -38l-11 -88h-488z" />
<glyph unicode="O" horiz-adv-x="1522" d="M37 733q20 165 89.5 303t177 237.5t247 155t301.5 55.5t289 -55.5t210 -155t118 -237.5q22 -88 22 -187q0 -56 -7 -116q-20 -165 -89.5 -302.5t-176.5 -237t-247.5 -154t-302.5 -54.5t-288 54.5t-210 154.5q-83 98 -118 236q-22 88 -22 187q0 56 7 116zM240 733 q-7 -55 -7 -105q0 -73 14 -137q24 -107 83 -181t150 -113.5t209 -39.5q119 0 220 39.5t178 113.5t127 181t66 242q7 55 7 105q0 74 -14 138q-24 108 -82 182t-149.5 114t-210.5 40q-118 0 -219 -40t-178 -114.5t-127.5 -182t-66.5 -242.5z" />
<glyph unicode="P" horiz-adv-x="1196" d="M-17 0l10 88q4 32 36 38l119 24l144 1168q-96 19 -114 23q-30 6 -26 38l11 88h553h8q134 0 231 -31q257 -84 257 -348q0 -36 -5 -75q-26 -209 -182 -334q-162 -130 -422 -130h-208l-49 -399l114 -24q30 -6 26 -38l-11 -88h-492zM414 707h208q166 0 267.5 83t118.5 223 q3 25 3 49q-1 105 -63 170q-76 79 -252 79h-207z" />
<glyph unicode="Q" horiz-adv-x="1522" d="M36 733q20 165 89.5 303t177 237.5t247 155t301.5 55.5t289 -55.5t210 -155t118 -237.5q22 -88 22 -187q0 -56 -7 -116q-13 -103 -45.5 -196.5t-82 -173.5t-115 -145.5t-143.5 -114.5l327 -406h-164q-37 0 -64 10t-48 36l-223 281q-61 -18 -125 -28.5t-133 -10.5 q-162 0 -288 54.5t-209.5 154t-118.5 236.5q-22 88 -22 187q0 56 7 116zM238 733q-6 -55 -6 -105q0 -74 14 -137q24 -107 83 -181t150 -113.5t209 -39.5q119 0 220 39.5t178 113.5t127 181t67 242q6 55 6 105q0 74 -14 138q-24 107 -82 181.5t-149.5 114.5t-210.5 40 q-118 0 -219 -40t-178 -114.5t-127.5 -182t-67.5 -242.5z" />
<glyph unicode="R" horiz-adv-x="1300" d="M-19 0q9 70 10 88q2 14 12 25t24 13l120 23l143 1169q-96 20 -114 23q-13 3 -20.5 13.5t-5.5 24.5l11 88h147h395q139 0 237.5 -28t157.5 -81q60 -52 82 -128q15 -49 15 -106q0 -30 -4 -63q-10 -78 -42.5 -145.5t-86 -121.5t-125 -91.5t-158.5 -57.5q34 -22 58 -62 l265 -434q109 -22 112 -23q12 -4 20 -14q6 -8 6 -18v-6l-11 -88h-36h-111h-65q-54 0 -75 42l-316 524q-14 25 -33.5 35.5t-60.5 10.5h-131l-57 -463q25 -5 114 -23q13 -3 20.5 -13.5t5.5 -24.5l-10 -88h-148h-198h-147zM419 757h188q87 0 155.5 21t118 59.5t78.5 91.5 t37 118q3 22 3 43q1 100 -65 154q-78 66 -250 67h-197z" />
<glyph unicode="S" horiz-adv-x="1054" d="M13 62l45 368h100q35 0 37 -35v-9q-1 -23 -3 -92q-4 -88 -4 -89q146 -57 242 -57h4q94 0 150 20q58 20 100 55q88 73 103 194q2 14 2 27q0 97 -90 153q-46 29 -105 49q-187 60 -247 88.5t-104 72.5q-80 81 -80 213q0 29 4 60q20 164 152 280q141 124 342.5 124t400.5 -84 l-41 -337h-99q-8 0 -14 1.5t-10.5 4.5t-7.5 8t-4.5 11t-1.5 14q0 24 6 178q-132 39 -237 39q-129 0 -211 -67q-77 -61 -89 -161l-2 -24q0 -91 91 -147q46 -29 108 -51q176 -61 245 -93q185 -88 186 -278q0 -25 -4 -53q-25 -201 -168 -327q-153 -134 -380 -134 q-95 0 -199 19.5t-161 38.5z" />
<glyph unicode="T" horiz-adv-x="1206" d="M17 1143l40 324h1105h71h27l-39 -324h-100q-36 0 -37 21.5t-1 135.5h-345l-141 -1150q1 0 25 -6q77 -15 98.5 -19.5t17.5 -36.5l-11 -88h-495l11 88q4 32 39 39t116 23l142 1150h-347q-29 -116 -35 -136.5t-41 -20.5h-100z" />
<glyph unicode="U" horiz-adv-x="1492" d="M75 1379l11 88h513l-11 -88q-4 -32 -36 -38q-16 -3 -139 -23l-91 -741q-5 -39 -5 -74q0 -136 70 -228q91 -118 269 -118l2 1q180 0 298 116q115 114 139 301l91 743q-117 20 -132 23q-31 6 -28 38l11 88h167h198h148l-10 -88q-4 -32 -37 -38l-120 -23l-91 -743 q-32 -259 -207 -423q-182 -169 -449 -169q-266 0 -407 169q-111 134 -111 330q0 45 6 93l91 743q-96 19 -114 23q-26 5 -26 31v7z" />
<glyph unicode="V" horiz-adv-x="1497" d="M22 1379l11 88h487l-11 -88q-4 -32 -45 -40t-110 -21l260 -933q15 -51 29 -161q35 104 65 161l486 933q-96 19 -114 23q-30 6 -26 38l11 88h488l-10 -88q-4 -32 -36 -38l-105 -23l-699 -1318h-180l-374 1318q-83 19 -101 23q-26 5 -26 31v7z" />
<glyph unicode="W" horiz-adv-x="2208" d="M24 1379l11 88h497l-10 -88q-4 -32 -36 -38q-107 -22 -119 -23l159 -918q8 -46 13 -126q30 91 46 126l470 1020q8 17 28 32t45 15h58q51 0 62 -47l217 -1020q12 -53 18 -121q10 33 19 64t21 57l386 918q-12 2 -113 23q-31 6 -27 38l11 88h399h87l-11 -88q-4 -32 -35 -38 l-105 -23l-574 -1318h-178l-234 1119q-7 32 -12 74q-7 -18 -14 -38t-14 -36l-511 -1119h-179l-248 1318q-83 19 -101 23q-26 5 -26 31v7z" />
<glyph unicode="X" horiz-adv-x="1505" d="M-24 0l11 88q4 32 36 38q7 2 139 24l479 604l-313 564q-116 19 -134 23q-31 6 -27 38l11 88h523l-10 -88q-4 -32 -37.5 -38.5t-102.5 -19.5l249 -469q9 22 27 47l333 419q-38 8 -114 23q-30 6 -26 38l11 88h526l-10 -88q-4 -32 -30.5 -37t-144.5 -24l-451 -555l328 -613 q117 -20 134 -24q30 -6 26 -38l-11 -88h-540l11 88q4 32 35 38q12 2 65.5 13t54.5 11l-260 503q-10 -22 -23 -41l-366 -462q8 -2 114 -24q30 -6 26 -38l-11 -88h-528z" />
<glyph unicode="Y" horiz-adv-x="1334" d="M21 1379l11 88h493l-10 -88q-4 -32 -37 -38q-107 -22 -118 -23l217 -467q26 -57 43 -130q37 78 74 130l332 467q-12 2 -114 23q-30 6 -26 38l11 88h494l-11 -88q-4 -32 -31 -37t-111 -24l-538 -734l-53 -434q14 -3 114 -24q30 -6 26 -38l-11 -88h-147h-198h-147l11 88 q4 32 35 38l120 24l53 434l-356 734q-74 18 -102 24q-25 5 -25 30q0 3 1 7z" />
<glyph unicode="Z" horiz-adv-x="1229" d="M-14 0l9 78q4 31 27 58l975 1170h-656q-29 -147 -35 -161q-11 -35 -46 -35h-99l24 196l20 161h1073l-9 -73q-5 -35 -30 -66l-973 -1166h682q30 148 34 161q11 35 46 34h99l-24 -195l-20 -162h-1097z" />
<glyph unicode="[" horiz-adv-x="593" d="M16 -296l229 1866h377l-9 -72q-3 -23 -18 -35.5t-38 -12.5h-173l-199 -1625h173q23 0 35 -13t9 -36l-9 -72h-377z" />
<glyph unicode="\" horiz-adv-x="658" d="M46 1508h78q34 0 56.5 -17t31.5 -50l427 -1533h-77q-30 0 -56 17.5t-35 52.5z" />
<glyph unicode="]" horiz-adv-x="606" d="M-35 -296l9 72q3 20 18.5 34.5t37.5 14.5h173l200 1625h-173q-23 0 -35 14t-10 34l9 72h377l-229 -1866h-377z" />
<glyph unicode="^" horiz-adv-x="931" d="M42 806l448 661h118l285 -661h-132q-17 0 -28.5 10t-17.5 25l-157 360q-10 24 -17 46t-12 43q-20 -45 -48 -89l-243 -360q-10 -14 -23 -24.5t-34 -10.5h-139z" />
<glyph unicode="_" horiz-adv-x="1130" d="M142 -292l15 123h807l-15 -123h-807z" />
<glyph unicode="`" horiz-adv-x="543" d="M105 1484h174q34 0 48.5 -11t26.5 -34l122 -248h-104q-21 0 -34 6.5t-25 22.5z" />
<glyph unicode="a" horiz-adv-x="1059" d="M15 353q0 279 191 488q194 212 466 213q143 0 254 -49l-106 -854q63 -12 116 -23q13 -3 22 -13.5t9 -24.5v-88h-165h-94q-61 0 -62 63l19 208q-54 -96 -119 -164t-151 -101q-52 -20 -108 -20q-71 0 -124.5 28.5t-85 79.5t-47 115.5t-15.5 141.5zM198 385q0 -246 157 -246 q98 0 190 116q88 111 146 294l44 351q-23 18 -44 18h-44q-184 0 -317 -160q-132 -160 -132 -373z" />
<glyph unicode="b" horiz-adv-x="1115" d="M91 43l2 17l18 149l142 1151q-112 19 -128 22q-13 3 -20.5 14t-6.5 24l11 89h162h6h177l-76 -621q74 75 163 120.5t196 45.5q90 0 159 -34t112 -101q42 -67 58 -165q8 -48 8 -105q0 -58 -8 -123q0 -1 -0.5 -2t-0.5 -2v-3q-16 -127 -63.5 -226t-117 -167t-157.5 -104 t-185 -36q-82 0 -195 14t-184 29zM289 161q104 -27 200 -32q21 -1 39 -1h13q62 2 115 25q59 26 104 76t76 123q27 65 39 158q2 11 2 16q7 59 7 108q0 36 -4 66q-8 72 -36 119t-74.5 68.5t-109.5 21.5q-89 0 -161 -41t-137 -116l-30 -242l-32 -260z" />
<glyph unicode="c" horiz-adv-x="905" d="M20 519q29 239 173 384q151 151 381 151q119 0 298 -76l-33 -269h-82q-30 0 -32 28q-1 4 -1 15q0 20 2 62q4 66 4 69q-47 15 -73 19q-52 8 -103 8h-12q-56 -1 -115.5 -27t-105.5 -77q-92 -103 -114 -287q-6 -46 -5 -88q0 -124 51 -203q67 -101 208 -101q128 0 239 86 q20 16 41 16t30 -17l44 -67q-149 -159 -400 -159h-3q-200 0 -308 140q-90 115 -90 294q0 47 6 99z" />
<glyph unicode="d" horiz-adv-x="1114" d="M17 515q29 236 167 385q142 156 348 156q172 0 269 -123l52 426q-102 16 -133 23t-27 38l11 88h350l-167 -1358q96 -19 114 -24q30 -6 26 -38l-11 -88h-256q-39 0 -44 38l-1 126q-168 -178 -370 -178q-182 0 -270 135q-66 102 -66 268q0 59 8 126zM206 515 q-7 -59 -7 -109q0 -198 114 -251q47 -22 110 -22q162 0 299 157l61 502q-75 122 -223 122h-1q-149 0 -239.5 -103.5t-113.5 -295.5z" />
<glyph unicode="e" horiz-adv-x="893" d="M12 407q0 252 145 443q153 202 394 202q105 0 179.5 -42t105.5 -115q18 -42 18 -80q0 -81 -32 -134t-97 -93q-74 -46 -203 -79.5t-332 -53.5q-1 -11 -1 -22v-22q0 -135 59 -208.5t182 -73.5q122 0 209 68q58 45 79 58q16 10 33 10q18 0 33 -17l45 -57q-46 -48 -84.5 -80 t-92 -63t-118 -46.5t-140.5 -15.5q-138 0 -227 66t-128 180q-27 78 -27 175zM208 575q158 19 253 44.5t146 54.5q43 25 63.5 55t20.5 79q0 54 -43 83.5t-107 29.5q-188 0 -287 -210q-30 -63 -46 -136z" />
<glyph unicode="f" horiz-adv-x="815" d="M-76 -352l20 98q6 20 35 20h40q82 0 119.5 38.5t47.5 119.5l117 958l-113 13q-43 10 -43 40v7l9 75h164l12 100q21 169 125.5 270.5t276.5 101.5q70 0 126 -21l-15 -91q-1 -8 -5.5 -14t-9.5 -8.5t-15 -4t-17 -1.5h-20h-32q-209 0 -238 -237l-11 -95h300l-16 -132h-295 q-17 -141 -37.5 -305t-43.5 -351.5t-37 -305.5q-17 -137 -98.5 -216.5t-222.5 -79.5q-70 0 -123 21z" />
<glyph unicode="g" horiz-adv-x="998" d="M-44 -119q0 81 42 139.5t110.5 96.5t156 55t178.5 17q37 0 73.5 -3t72.5 -8q-9 19 -15 40.5t-6 45.5q0 32 10 65.5t32 76.5q-39 -27 -87 -41.5t-109 -14.5q-59 0 -111 19.5t-91 57.5t-61.5 95t-22.5 132q0 74 27 145t79.5 127t129 90t177.5 34q113 0 195 -54h282l-8 -60 q-2 -17 -12 -31.5t-29 -17.5l-129 -23q9 -27 14 -55.5t5 -61.5q-1 -51 -12.5 -92.5t-29 -76t-38 -65.5t-38 -61.5t-29.5 -63t-12 -70.5q0 -43 21 -77.5t46.5 -71.5t46.5 -80.5t21 -102.5q0 -73 -34 -138t-96.5 -115t-152 -79.5t-201.5 -29.5q-89 0 -162 18.5t-125 52.5 t-80 81.5t-28 104.5zM129 -96q0 -74 62 -113t176 -39q68 0 123.5 18t95 47.5t61.5 69.5t22 84q0 27 -5.5 50t-13.5 44q-55 9 -104 13t-91 4q-84 0 -145.5 -15t-101.5 -39.5t-59.5 -56.5t-19.5 -67zM295 653q0 -92 44.5 -140t124.5 -48q55 0 97 24t71 63.5t44.5 88.5t15.5 99 q0 90 -45.5 136.5t-125.5 46.5q-55 0 -97 -22.5t-70.5 -60.5t-43.5 -86t-15 -101z" />
<glyph unicode="h" horiz-adv-x="1190" d="M90 0l25 201l142 1158q-116 19 -134 23q-30 6 -26 38l10 88h351l-75 -610q166 156 353 156q168 0 244 -108q59 -81 59 -209q0 -37 -5 -77l-62 -511q95 -19 114 -23q26 -5 26 -31v-7l-11 -88h-330l81 660q4 30 4 56q0 192 -192 192q-152 0 -298 -144l-50 -406l-44 -358 h-182z" />
<glyph unicode="i" horiz-adv-x="510" d="M49 949l11 88h330l-109 -888q97 -19 114 -23q13 -3 20.5 -13.5t6.5 -24.5l-11 -88h-330l18 149l91 739q-96 20 -114 23q-13 3 -20.5 13.5t-6.5 24.5zM211 1363q3 27 16.5 51t33.5 42t44.5 28t51 10t48.5 -10t38 -28t24 -42q6 -17 5 -35v-16q-4 -27 -17.5 -50t-33.5 -41 t-45 -28t-51.5 -10t-48.5 10t-38 28q-14 18 -22 41q-5 16 -6 35q0 7 1 15z" />
<glyph unicode="j" horiz-adv-x="579" d="M-76 -352l20 98q6 20 35 21h40q80 0 118 37t48 120l119 964q-32 6 -114 23q-30 6 -26 38l11 88h147h182l-136 -1114q-26 -206 -193 -273q-59 -23 -128.5 -23t-122.5 21zM326 1363q3 27 16 51t33 42t44.5 28t51 10t49 -10t38 -28t23.5 -42q6 -17 6 -35q0 -8 -1 -16 q-4 -27 -17.5 -50t-33.5 -41t-45 -28t-51.5 -10t-48.5 10t-37.5 28t-22.5 41q-6 16 -6 33q0 8 2 17z" />
<glyph unicode="k" horiz-adv-x="1076" d="M75 0q68 554 167 1359q-96 19 -114 23q-30 6 -26 38l10 88h331l-109 -887h47q37 0 67 28l265 251q-6 1 -19 3t-20.5 3.5t-17.5 5t-15 8t-8.5 12t-1.5 17.5l10 89h420h12l-10 -89q-4 -32 -30.5 -37t-129.5 -24l-274 -257q-35 -38 -66 -54q32 -23 54 -65l243 -363l51 -10 q10 -2 24.5 -4.5t23 -4t18 -4.5t14.5 -7.5t7.5 -12t1.5 -18.5l-11 -88h-193q-40 0 -65 36l-288 425q-13 21 -27 28t-46 7h-51q-2 -14 -61 -496h-183z" />
<glyph unicode="l" horiz-adv-x="505" d="M75 0l166 1359q-96 19 -113 23q-30 6 -26 38l10 88h330l-167 -1359q97 -19 114 -23q31 -6 27 -38l-11 -88h-330z" />
<glyph unicode="m" horiz-adv-x="1726" d="M47 949l10 88h256q39 0 45 -38v-106q151 161 314 161q104 0 162 -57.5t75 -158.5q46 92 138 154t206 62q179 0 257 -102q61 -79 60 -210q0 -39 -5 -82l-63 -510q97 -19 114 -24q27 -5 27 -31v-7l-11 -88h-331l81 660q4 30 4 57q0 78 -33 126q-44 65 -148 65 q-105 0 -173 -70.5t-81 -177.5l-81 -660h-182l81 660q4 33 4 61q0 187 -170 187q-127 0 -248 -135l-95 -773h-183l109 888q-96 19 -113 23q-26 5 -26 31v7z" />
<glyph unicode="n" horiz-adv-x="1183" d="M47 949l10 88h256q39 0 45 -38v-112q172 167 365 167q165 0 243 -106q60 -83 61 -211q0 -37 -5 -77l-63 -510q97 -20 114 -24q27 -5 27 -31v-7l-11 -88h-331l82 660q4 30 4 56q0 192 -192 192q-152 0 -298 -144l-94 -764h-183l109 888q-96 19 -113 23q-26 5 -26 31v7z " />
<glyph unicode="o" horiz-adv-x="1057" d="M17 519q15 122 62 221t120 168.5t169.5 107.5t210 38t200.5 -38t142.5 -107.5t77.5 -168.5q13 -59 13 -126q0 -46 -6 -95q-15 -123 -61 -221t-118.5 -168t-169 -107t-210 -37t-200.5 37t-143 107t-79 168q-14 59 -14 128q0 44 6 93zM204 354q10 -72 42.5 -122.5t86.5 -77 t132 -26.5q154 0 242 103t111 287q6 49 6 93q0 119 -46 195q-63 104 -217 104q-78 0 -138.5 -26.5t-105 -76.5t-72.5 -123q-27 -74 -39 -166q-6 -49 -7 -93q0 -37 5 -71z" />
<glyph unicode="p" horiz-adv-x="1150" d="M-73 -351l11 88q4 32 35 38l120 23l134 1090q-96 19 -114 23q-30 6 -26 38l11 88h147h109q39 0 44 -38l1 -122q169 179 371 179q182 0 269 -135q66 -104 66 -271q0 -59 -8 -125q-29 -234 -166 -384q-142 -156 -331 -156q-1 0 -2 1q-190 0 -285 122l-38 -310 q3 -1 54.5 -11t59.5 -12q30 -6 26 -38l-11 -88h-477zM331 250q76 -123 224.5 -123t239 103.5t113.5 294.5q7 58 7 107q0 276 -224 276q-161 0 -299 -156z" />
<glyph unicode="q" horiz-adv-x="1062" d="M24 516l1 3q31 251 181 397q143 139 342 140q164 0 379 -43l72 -15l-147 -1199q112 -18 128 -22q26 -5 26 -30v-7l-11 -89h-513l11 89q4 31 31 36.5t145 23.5l43 354q-164 -166 -359 -166q-184 0 -270 135q-67 104 -67 272q0 57 8 121zM213 516q-7 -58 -7 -107 q0 -276 224 -276q162 0 299 157l72 591q-127 33 -233 33h-6h-12q-205 -8 -295 -225q-29 -69 -35 -119z" />
<glyph unicode="r" horiz-adv-x="803" d="M47 949l10 88h252q29 0 39.5 -10.5t10.5 -39.5l-7 -162q142 230 344 231q80 0 137 -37l-40 -136q-10 -26 -29.5 -26t-48 10t-81.5 10q-178 0 -293 -217l-81 -660h-183l109 888q-96 19 -113 23q-26 5 -26 31v7z" />
<glyph unicode="s" horiz-adv-x="850" d="M24 41l33 271h73q26 0 27 -25v-6q0 -23 -4 -125q83 -41 206 -41q101 0 166 51q57 46 65 104q2 16 3 30q0 36 -15 57q-20 28 -55.5 48t-82.5 34q-130 42 -183 66t-87 56q-62 59 -62 153q0 19 2 39q15 126 122 210q114 91 303 91q108 0 264 -55l-9 -72l-24 -194h-81 q-6 0 -10.5 1t-7.5 3t-5.5 4.5t-4.5 6.5t-2.5 8.5t-0.5 10.5q0 21 4 129q-91 22 -157 22h-2q-87 -1 -147 -45q-60 -42 -66 -94q-2 -13 -1 -24q0 -35 15 -55q35 -48 109 -71.5t122.5 -40.5t94 -37.5t80.5 -50.5q63 -58 64 -147q0 -18 -3 -36q-18 -148 -130 -237 q-117 -94 -285 -95h-6q-166 0 -322 56z" />
<glyph unicode="t" horiz-adv-x="662" d="M22 925l9 72l173 22l81 320q4 15 16.5 25t29.5 10h92l-44 -357h297l-16 -132h-297l-76 -623q-2 -15 -1 -28q0 -46 20 -70q28 -32 79 -31q29 0 50.5 7.5t38 17t28.5 17t20 7.5q14 0 23 -17l43 -87q-53 -44 -122.5 -69t-140.5 -25q-123 0 -181 68q-45 54 -44 145q0 25 3 53 l78 635h-125q-16 -1 -26 9q-8 7 -9 22q0 4 1 9z" />
<glyph unicode="u" horiz-adv-x="1177" d="M30 949l11 88h330l-82 -661q-3 -28 -3 -52q0 -80 35 -130q46 -64 156 -65q155 0 298 143l76 616q-17 4 -113 23q-31 6 -27 38l11 88h147h183l-109 -887q97 -19 113 -24q28 -5 28 -33v-5l-11 -88h-257q-39 0 -45 38v112q-170 -166 -365 -166q-166 0 -246 107 q-58 79 -58 206q0 37 5 79l63 512q-96 19 -114 23q-26 5 -26 31v7z" />
<glyph unicode="v" horiz-adv-x="1147" d="M15 949l11 88h464l-10 -88q-4 -32 -36 -38q-19 -4 -116 -22l152 -557q12 -46 20 -147q35 99 58 147l290 556q-23 5 -114 23q-30 6 -26 38l11 88h389h71l-11 -88q-4 -32 -36 -38q-12 -2 -102 -20l-472 -891h-165l-254 891q-17 4 -55.5 11.5t-42.5 8.5q-26 5 -26 31v7z" />
<glyph unicode="w" horiz-adv-x="1708" d="M16 949l11 88h462l-10 -88q-4 -32 -37 -38q-20 -4 -115 -22l97 -557q9 -93 11 -141q14 41 57 141l302 672q16 35 52 35h2h79q40 0 48 -35l131 -672q8 -44 19 -139q20 71 49 139l236 556q-14 2 -118 23q-31 6 -27 38l11 88h463l-11 -88q-4 -32 -35 -38q-12 -2 -54 -10 t-51 -10l-397 -891h-145q-28 0 -32 35l-143 703q-6 24 -8.5 50t-3.5 46q-9 -27 -17 -50t-19 -47l-318 -702q-16 -35 -47 -35h-137l-179 891q-8 1 -33 6q-58 12 -67 14q-26 5 -26 31v7z" />
<glyph unicode="x" horiz-adv-x="1133" d="M-13 0l11 88q4 32 35 38q15 3 51 10t51 9l310 386l-203 359q-85 17 -103 21q-30 6 -27 38l11 88h407l-11 -88q-4 -32 -36 -38q-3 -1 -45 -9l149 -281q13 29 34 57l179 222q-13 3 -32 6.5t-21 4.5q-30 6 -26 38l11 88h406l-11 -88q-4 -32 -37 -38.5t-109 -20.5l-289 -348 l218 -397q53 -11 89 -18t32 -39l-11 -88h-408l11 88q4 32 37 38q8 2 52 10l-161 308q-11 -30 -28 -53l-204 -253q10 -2 24 -5q31 -6 35 -7q31 -6 27 -38l-11 -88h-407z" />
<glyph unicode="y" horiz-adv-x="1144" d="M13 949l11 88h464l-10 -88q-4 -32 -36 -38q-17 -4 -115 -22l164 -543q11 -41 16 -91q26 60 42 92l291 542q-81 16 -109.5 22.5t-24.5 37.5l11 88h385h75l-11 -88q-4 -32 -36 -38q-9 -2 -55 -11t-55 -10l-662 -1196q-26 -45 -71 -45h-135l240 411l-262 833q-73 14 -91 18 q-26 5 -26 31v7z" />
<glyph unicode="z" horiz-adv-x="939" d="M-2 0l9 76q4 32 34 65l657 753h-444q-23 -114 -26 -125q-8 -26 -34 -26h-73l36 294h103h667l-9 -78q-5 -37 -35 -69l-653 -748h462q25 125 28 137q8 26 35 25h73l-37 -304h-793z" />
<glyph unicode="{" horiz-adv-x="607" d="M36 583l13 109q69 0 110 41t49 107q6 51 4 101t-5.5 100.5t-5.5 101.5t5 104q9 71 37 130.5t75.5 102.5t113.5 66.5t150 23.5h54l-10 -81q-3 -20 -18 -29.5t-27 -9.5h-21q-79 0 -131 -51.5t-62 -140.5q-7 -57 -6.5 -110t3.5 -104t4 -101t-5 -101q-5 -39 -20.5 -72.5 t-39.5 -59.5t-54.5 -45t-65.5 -28q33 -9 58.5 -28t43.5 -45.5t25 -59.5t2 -71q-6 -51 -19.5 -101t-28.5 -101t-29 -104t-21 -111q-11 -89 28.5 -140t118.5 -51h20q12 0 25.5 -9.5t10.5 -29.5l-10 -82h-54q-84 0 -144 24t-97.5 67t-51 102.5t-4.5 130.5q7 53 21 103.5 t30 101.5t30.5 101t20.5 101q8 65 -23 106.5t-99 41.5z" />
<glyph unicode="|" horiz-adv-x="422" d="M140 -351v1921h141v-1921h-141z" />
<glyph unicode="}" horiz-adv-x="620" d="M-35 -296l10 82q3 20 18.5 29.5t27.5 9.5h20q79 0 131 51t63 140q7 57 6.5 110.5t-3.5 104.5t-4 101t5 101q5 38 20 71t39.5 59.5t55 45.5t65.5 28q-33 9 -59 28t-43.5 45t-25 59.5t-2.5 72.5q6 51 19.5 101t29 101t29 104t20.5 110q11 88 -28 140t-118 52h-20 q-12 0 -25.5 9t-11.5 30l10 81h55q84 0 144 -23.5t96.5 -66.5t51 -102.5t5.5 -130.5q-7 -53 -21.5 -104t-30 -101.5t-30 -100.5t-20.5 -101q-8 -66 22.5 -107t99.5 -41l-14 -109q-69 0 -109.5 -41.5t-48.5 -106.5q-6 -51 -4 -101t5.5 -101t5.5 -101.5t-5 -103.5 q-9 -71 -37.5 -130.5t-76 -102.5t-113.5 -67t-150 -24h-54z" />
<glyph unicode="~" horiz-adv-x="1169" d="M86 424q8 69 34 126t66.5 98t95 64t121.5 23q53 0 103 -17t96.5 -36.5t88 -36.5t78.5 -17q67 0 109.5 43.5t52.5 114.5h148q-8 -69 -34.5 -126t-66.5 -98t-95 -63.5t-121 -22.5q-53 0 -103.5 16.5t-96.5 36.5t-88 37t-79 17q-67 0 -109.5 -43t-52.5 -116h-147z" />
<glyph unicode="&#xa2;" horiz-adv-x="922" d="M39 518q29 239 174 383q129 131 319 149l35 183q5 22 20.5 37t37.5 15h67l-45 -236q109 -14 244 -73l-33 -268h-82q-30 0 -31 28q-2 11 4 146q-45 14 -72 18q-37 6 -57 8l-1 -1l-148 -778l-1 -3h43q34 0 79 16t76 35.5t51.5 35t41.5 15.5t30 -17l43 -67 q-145 -155 -391 -159l-33 -176q-4 -18 -20 -33.5t-37 -15.5h-68l44 236q-129 29 -206 129q-114 145 -84 393zM227 518q-23 -185 46 -291q33 -49 85 -75q7 24 146 749q-165 -38 -238 -220q-28 -73 -39 -163z" />
<glyph unicode="&#xa3;" horiz-adv-x="1187" d="M5 0l15 118q36 10 69.5 27.5t61.5 43.5t47 61.5t25 82.5l36 296h-199l7 59q3 27 22 45.5t48 18.5h138l32 267q12 96 50 180.5t102 147.5t152.5 99.5t201.5 36.5q80 0 139.5 -20t103 -55t73.5 -81t48 -99l-80 -47q-11 -6 -22 -9t-21 -3q-14 0 -26.5 6t-21.5 20 q-17 26 -35.5 50t-42 42t-56 28.5t-78.5 10.5q-65 0 -116.5 -21.5t-89.5 -61.5t-61 -96t-32 -126l-33 -269h452l-10 -74q-2 -18 -19 -33.5t-40 -15.5h-398l-31 -249q-9 -77 -45 -133t-93 -102q30 5 60 9t60 4h692l-9 -78q-2 -14 -9.5 -28t-19 -26t-26.5 -19t-34 -7h-987z " />
<glyph unicode="&#xa5;" horiz-adv-x="1163" d="M49 323l13 105h348l13 108h-348l13 104h313l-316 827h153q27 0 41 -12.5t22 -33.5l211 -579q10 -36 16.5 -66t10.5 -59q11 30 24 60t31 65l353 579q10 17 29 31.5t44 14.5h154l-521 -827h315l-13 -104h-348l-13 -108h348l-13 -105h-348l-40 -323h-183l39 323h-348z" />
<glyph unicode="&#xa9;" horiz-adv-x="1618" d="M60 733.5q13 103.5 51.5 199t97 179t135.5 151.5t166 117.5t187.5 76t202 26.5t196 -26.5t169.5 -76t137 -117.5t98.5 -151.5t53.5 -179t2 -199.5q-13 -102 -51 -198t-97 -179t-136 -151t-166 -117t-188 -75.5t-202.5 -26.5t-195.5 26.5t-168.5 75.5t-137 117t-99 151 t-53.5 178.5t-2 199zM163 733q-11 -91 1 -175t45 -157t84 -132.5t117.5 -102t146.5 -65.5t170 -23q135 0 259.5 51t223 139.5t164 208t82.5 256.5q11 91 -1.5 176t-45.5 158.5t-84.5 134t-118 103t-147 66t-170.5 23.5q-135 0 -259.5 -52t-222.5 -141.5t-162.5 -210 t-81.5 -257.5zM364 735q13 103 59 190t116 149t160 96t190 34q111 0 184.5 -34.5t124.5 -91.5l-55 -66q-6 -6 -15 -12.5t-21 -6.5q-14 0 -28.5 11.5t-38.5 25t-61.5 25.5t-98.5 12q-72 0 -132.5 -23t-106 -66t-75 -104.5t-39.5 -138.5q-10 -79 4.5 -141t48.5 -103.5 t85.5 -64t115.5 -22.5q49 0 83.5 6.5t60 16.5t46 22.5t42.5 24.5q9 5 15 9t12 3q11 0 15 -3t10 -9l54 -65q-67 -68 -156.5 -105.5t-208.5 -37.5q-100 0 -178 35t-129.5 97.5t-73 148.5t-9.5 188z" />
<glyph unicode="&#xad;" d="M108 537l19 154h505l-19 -154h-505z" />
<glyph unicode="&#xae;" horiz-adv-x="1618" d="M60 733.5q13 103.5 51.5 199t97 179t135.5 151.5t166 117.5t187.5 76t202 26.5t196 -26.5t169.5 -76t137 -117.5t98.5 -151.5t53.5 -179t2 -199.5q-13 -102 -51 -198t-97 -179t-136 -151t-166 -117t-188 -75.5t-202.5 -26.5t-195.5 26.5t-168.5 75.5t-137 117t-99 151 t-53.5 178.5t-2 199zM163 733q-11 -91 1 -175t45 -157t84 -132.5t117.5 -102t146.5 -65.5t170 -23q135 0 259.5 51t223 139.5t164 208t82.5 256.5q11 91 -1.5 176t-45.5 158.5t-84.5 134t-118 103t-147 66t-170.5 23.5q-135 0 -259.5 -52t-222.5 -141.5t-162.5 -210 t-81.5 -257.5zM445 279l112 913h295q176 0 253 -64t62 -189q-12 -96 -75 -163.5t-175 -93.5q16 -10 27 -25.5t20 -35.5l191 -342h-151q-34 0 -47 25l-168 309q-8 13 -20 20.5t-38 7.5h-82l-45 -362h-159zM663 758h119q56 0 97 10.5t67.5 31t41 50.5t19.5 69q5 38 -1.5 66.5 t-26.5 47t-54.5 27.5t-87.5 9h-136z" />
<glyph unicode="&#xb4;" horiz-adv-x="587" d="M94 1191l182 248q17 24 35.5 34.5t51.5 10.5h178l-271 -264q-16 -15 -31 -22t-36 -7h-109z" />
<glyph unicode="&#x2000;" horiz-adv-x="839" />
<glyph unicode="&#x2001;" horiz-adv-x="1678" />
<glyph unicode="&#x2002;" horiz-adv-x="839" />
<glyph unicode="&#x2003;" horiz-adv-x="1678" />
<glyph unicode="&#x2004;" horiz-adv-x="559" />
<glyph unicode="&#x2005;" horiz-adv-x="419" />
<glyph unicode="&#x2006;" horiz-adv-x="279" />
<glyph unicode="&#x2007;" horiz-adv-x="279" />
<glyph unicode="&#x2008;" horiz-adv-x="209" />
<glyph unicode="&#x2009;" horiz-adv-x="335" />
<glyph unicode="&#x200a;" horiz-adv-x="93" />
<glyph unicode="&#x2010;" d="M108 537l19 154h505l-19 -154h-505z" />
<glyph unicode="&#x2011;" d="M108 537l19 154h505l-19 -154h-505z" />
<glyph unicode="&#x2012;" d="M108 537l19 154h505l-19 -154h-505z" />
<glyph unicode="&#x2013;" horiz-adv-x="1046" d="M108 538l16 133h819l-16 -133h-819z" />
<glyph unicode="&#x2014;" horiz-adv-x="1589" d="M108 538l16 133h1362l-17 -133h-1361z" />
<glyph unicode="&#x2018;" horiz-adv-x="432" d="M115 1234q11 92 67 176.5t147 155.5l52 -35q8 -5 9.5 -11.5t1.5 -12.5q-2 -14 -14 -24q-19 -20 -37 -43t-33.5 -48t-26 -52.5t-13.5 -58.5q-4 -33 1 -67.5t24 -73.5q6 -11 4 -24q-3 -25 -31 -35l-118 -45q-24 49 -31.5 99t-1.5 99z" />
<glyph unicode="&#x2019;" horiz-adv-x="425" d="M87 1073q2 14 14 25q19 19 37 42t33 48t26 53t14 58q4 33 -1.5 68t-23.5 74q-6 11 -5 22q3 25 32 36l117 45q24 -49 31.5 -98t1.5 -98q-11 -93 -67.5 -178t-145.5 -155l-52 35q-8 5 -9.5 11t-1.5 12z" />
<glyph unicode="&#x201c;" horiz-adv-x="743" d="M115 1234q11 92 67 176.5t147 155.5l52 -35q8 -5 9.5 -11.5t1.5 -12.5q-2 -14 -14 -24q-19 -20 -37 -43t-33.5 -48t-26 -52.5t-13.5 -58.5q-4 -33 1 -67.5t24 -73.5q6 -11 4 -24q-3 -25 -31 -35l-118 -45q-24 49 -31.5 99t-1.5 99zM427 1234q11 92 67 176.5t146 155.5 l52 -35q8 -5 10 -11.5t1 -12.5q-2 -14 -13 -24q-19 -20 -37.5 -43t-33.5 -48t-25.5 -52.5t-14.5 -58.5q-4 -33 1.5 -67.5t23.5 -73.5q6 -11 5 -24q-3 -25 -32 -35l-117 -45q-24 49 -31.5 99t-1.5 99z" />
<glyph unicode="&#x201d;" d="M87 1073q2 14 14 25q19 19 37 42t33 48t26 53t14 58q4 33 -1.5 68t-23.5 74q-6 11 -5 22q3 25 32 36l117 45q24 -49 31.5 -98t1.5 -98q-11 -93 -67.5 -178t-145.5 -155l-52 35q-8 5 -9.5 11t-1.5 12zM399 1073q2 14 13 25q19 19 37 42t33.5 48t26 53t14.5 58 q4 33 -1.5 68t-24.5 74q-6 11 -4 22q3 25 32 36l117 45q24 -49 31 -98t1 -98q-11 -93 -67 -178t-146 -155l-52 35q-8 5 -9.5 11t-0.5 12z" />
<glyph unicode="&#x2022;" horiz-adv-x="921" d="M77.5 609q9.5 79 48.5 148.5t96.5 121.5t130.5 82t151 30q79 0 144.5 -30t111 -82t67 -121.5t12 -148.5t-48.5 -148t-96.5 -120t-131 -81.5t-152.5 -30.5q-78 0 -143.5 30.5t-110.5 81.5t-66.5 120t-12 148z" />
<glyph unicode="&#x2026;" horiz-adv-x="1511" d="M83 113q3 27 16 50t32 40.5t43.5 28t51 10.5t49 -10.5t38 -28t22 -41t3.5 -49.5q-3 -28 -15.5 -51t-32.5 -40.5t-44.5 -27t-51 -9.5t-49 9.5t-37.5 27t-21.5 40.5t-3.5 51zM609 113q3 27 16 50t32 40.5t44 28t51.5 10.5t48.5 -10.5t37.5 -28t22.5 -41t3 -49.5 q-3 -28 -15.5 -51t-32 -40.5t-44.5 -27t-51.5 -9.5t-49 9.5t-37 27t-21.5 40.5t-4 51zM1137 113q3 27 15.5 50t31.5 40.5t44 28t51.5 10.5t49 -10.5t37.5 -28t22 -41t4 -49.5q-3 -28 -16 -51t-32.5 -40.5t-44 -27t-51.5 -9.5t-49 9.5t-37 27t-21.5 40.5t-3.5 51z" />
<glyph unicode="&#x202f;" horiz-adv-x="335" />
<glyph unicode="&#x205f;" horiz-adv-x="419" />
<glyph unicode="&#x20ac;" horiz-adv-x="1229" d="M27 566l12 105h138l2 30l4 32q3 20 6 41.5t7 41.5h-139l13 105h151q36 129 97.5 232.5t142.5 177t180 112.5t210 39q137 0 228 -51.5t152 -141.5l-71 -69q-9 -9 -18.5 -16t-23.5 -7q-17 0 -34 19.5t-45.5 43t-76 43t-124.5 19.5q-150 0 -261 -102.5t-168 -298.5h560 l-7 -57q-2 -18 -17.5 -33t-40.5 -15h-520q-4 -21 -7 -41t-5 -42l-4 -32q-2 -15 -3 -30h478l-7 -58q-2 -17 -18 -32t-41 -15h-416q3 -211 88.5 -316.5t234.5 -105.5q55 0 98.5 11t76.5 27.5t57.5 35.5t42.5 35t32.5 27t26.5 11q8 0 13.5 -3.5t13.5 -11.5l68 -71 q-85 -104 -198.5 -162t-259.5 -58q-119 0 -209.5 40.5t-150.5 115.5t-91.5 183t-31.5 242h-145z" />
<glyph unicode="&#x2122;" horiz-adv-x="1456" d="M92 1360l13 107h498l-13 -107h-184l-62 -499h-129l61 499h-184zM627 861l74 606h109q17 0 24 -4t16 -17l135 -310q4 -14 8.5 -27t6.5 -28q7 14 12.5 27t15.5 28l211 310q11 13 20 17t25 4h109l-75 -606h-113l46 374l19 77l-230 -344q-17 -29 -48 -29h-19q-32 0 -40 29 l-147 341l-1 -74l-45 -374h-113z" />
<glyph unicode="&#xe000;" horiz-adv-x="1035" d="M0 1035h1035v-1035h-1035v1035z" />
</font>
</defs>
</svg>
